<?xml version="1.0" encoding="utf-8"?>
<!-- Generator: Adobe Illustrator 24.0.2, SVG Export Plug-In . SVG Version: 6.00 Build 0)  -->
<svg version="1.1" id="Layer_1" xmlns="http://www.w3.org/2000/svg" xmlns:xlink="http://www.w3.org/1999/xlink" x="0px" y="0px"
	 viewBox="0 0 223.9 174.7" style="enable-background:new 0 0 223.9 174.7;" xml:space="preserve">
<title>logo-tc</title>
<path d="M13.9,53.1c2.8-0.1,4.6-1.4,5-4.3c0.5-4.3-3.4-6.1-7-6.5c-3.7-0.4-8-0.1-8.5,4.7c-0.3,2.3,1.2,4.6,4.3,5.5l-0.4,3.3
	C4,55-0.4,52.5,0.4,46.4c0.7-5.7,5.4-8.6,11.3-7.9c6.3,0.7,11,4.4,10.2,11.2c-0.6,5.4-4.8,6.9-8.4,6.8L13.9,53.1z"/>
<path d="M2,80.8l-0.4-3.4L15,75.8c2.8-0.3,4.5-1.3,4.1-4.6c-0.3-2.8-2.3-5.5-7.5-4.9L0.4,67.6L0,64.1l28.1-3.3l0.4,3.4l-10.4,1.2
	l0,0.1c2.2,1.1,3.7,3.2,4,5.6c0.4,3.2-0.5,7.3-6.3,8L2,80.8z"/>
<path d="M16.7,89.9c3-1.2,6.6,0.2,7.8,3.2c1.5,3.9-0.8,6.2-3.7,7.6L16.7,89.9z M15.6,102.5c-1.5,0.4-4.5-0.5-5.7-3.5
	c-1.4-3.7,0.2-6.5,4.2-8l5.3,14.1c6.8-2.6,10.2-7,8.1-12.6c-2.4-6.4-8.3-7.5-14.2-5.2C7.8,89.3,4.9,94.1,7,99.5
	c1.1,3.1,2.4,4.1,3.3,4.7c1.9,1.3,4.3,1.8,6.6,1.4L15.6,102.5z"/>
<path d="M28.7,123.4c-2.3,1.6-5.8,0.2-7.6-2.5c-1.4-2.1-1-3.8,0.8-5.1c2.1-1.4,4.1,0.5,5.3,1.7c2.9,3.2,3.7,3.8,4.3,4L28.7,123.4z
	 M29.2,111.5c1.4-0.7,3.7-1.6,6,1.6c1.9,2.7,1.8,4.7,0,5.9c-1.8,1.2-2.5,0.5-3-0.1l-3.8-4.3c-3.9-4.3-7.5-2.5-8.9-1.5
	c-2.9,2-3.4,5.6-1.2,8.7c1.6,2.4,4.1,4,7,4.2c-1.2,1-2.3,2.3-0.5,4.8c0.4,0.5,0.9,1,1.4,1.3l2.1-1.5c-0.3-0.3-0.5-0.5-0.8-0.9
	c-0.4-0.4-0.4-1,0-1.4c0.1-0.1,0.2-0.2,0.3-0.2l9.8-6.8c4.3-3,1.3-8.2,0.4-9.6c-2.9-4.2-6.3-5.8-10.5-3.1L29.2,111.5z"/>
<path d="M35,141.1l-2.5-2.4l14.3-14.8l2.3,2.3l-2.4,2.5l0.1,0c2.7-0.8,5.1-0.7,7,1.1c0.2,0.2,0.4,0.4,0.6,0.7l-2.5,2.6l-0.9-0.9
	c-2.1-2-5.4-2-7.4,0.1c-0.1,0.1-0.1,0.2-0.2,0.2L35,141.1z"/>
<path d="M63.3,144.5c0.7-1.1,1.5-3.2-2.2-5.6c-0.9-0.6-3.6-1.9-5,0.2c-0.9,1.4-0.3,2.3,1.6,4.4l2.4,2.6c3,3.2,3.4,5.4,1.8,7.7
	c-2.3,3.6-6.7,3.8-10.6,1.2c-6.8-4.5-4.7-8.8-3.5-10.9l2.8,1.8c-0.8,1.4-1.8,3.8,2.3,6.5c2.1,1.4,4.5,1.8,5.8-0.1
	c0.9-1.4,0.3-2.5-1.8-4.7l-2.8-3c-2-2.2-2.8-4.4-1.2-6.8c2.5-3.8,6.7-3.4,10.1-1.2c6.2,4,3.6,8.9,3,9.7L63.3,144.5z"/>
<path d="M81.6,160.9c-0.9,2.6-4.6,3.5-7.7,2.4c-2.4-0.9-3.1-2.5-2.3-4.6c0.9-2.4,3.6-2,5.3-1.7c4.2,0.9,5.2,0.9,5.8,0.7L81.6,160.9z
	 M75.1,150.9c0.8-1.4,2.1-3.5,5.8-2.1c3.1,1.1,4.2,2.8,3.4,4.8c-0.7,2-1.7,1.9-2.5,1.7l-5.6-1.3c-5.7-1.3-7.5,2.3-8.1,3.9
	c-1.2,3.3,0.5,6.5,4.1,7.8c2.7,1,5.7,0.8,8.2-0.6c-0.5,1.5-0.5,3.2,2.4,4.2c0.6,0.2,1.3,0.3,1.9,0.3l0.9-2.4c-0.4,0-0.8-0.1-1.1-0.2
	c-0.7-0.2-1-0.7-0.7-1.5l4-11.2c1.8-5-3.7-7.4-5.2-8c-4.8-1.7-8.5-1-10.3,3.6L75.1,150.9z"/>
<path d="M109.1,162.8c-0.5,4.5-2.6,7.7-6.4,7.3c-2.2-0.2-5.5-2-4.9-7.5c0.4-3.3,1.5-8.6,6.4-8.1C109.6,155,109.4,160.1,109.1,162.8z
	 M96.8,171.9l0.3-2.5l0.1,0c0.9,2.1,3,3.6,5.3,3.7c7,0.7,9.7-5.6,10.2-10.5c0.6-5.8-2-10.6-7.5-11.1c-2.4-0.3-4.7,0.7-6.2,2.5
	l-0.1,0l1-10.2l-3.4-0.4l-3,28.1L96.8,171.9z"/>
<path d="M138.3,170.8l-3.4,0.5l-1.9-13.3c-0.4-2.8-1.4-4.5-4.7-4c-2.8,0.4-5.5,2.4-4.7,7.6l1.6,11.1l-3.4,0.5l-4-28l3.4-0.5
	l1.5,10.3l0.1,0c1-2.2,3.1-3.8,5.5-4.2c3.2-0.4,7.3,0.3,8.1,6.1L138.3,170.8z"/>
<path d="M158,156.5c1,2.6-1.1,5.7-4.1,6.9c-2.4,1-4,0.2-4.8-1.9c-1-2.4,1.4-3.9,2.8-4.8c3.8-2.1,4.5-2.7,4.8-3.4L158,156.5z
	 M146.5,153.4c-0.4-1.5-0.8-4,2.9-5.5c3-1.2,4.9-0.7,5.7,1.3c0.8,2,0,2.6-0.8,2.9l-5,2.8c-5,2.8-4,6.7-3.4,8.4
	c1.3,3.3,4.7,4.5,8.2,3.1c2.7-1,4.8-3.2,5.6-5.9c0.7,1.4,1.7,2.7,4.6,1.5c0.6-0.3,1.1-0.6,1.6-1.1l-0.9-2.4c-0.3,0.2-0.7,0.4-1,0.6
	c-0.5,0.3-1.1,0.2-1.4-0.3c-0.1-0.1-0.1-0.3-0.1-0.4l-4.5-11c-2-4.9-7.7-3.1-9.2-2.5c-4.7,1.9-7,4.9-5.3,9.6L146.5,153.4z"/>
<path d="M170.3,146.3c-1.6-2.1-4.3-6.4,0-9.6c4-2.9,7.7,1.1,9.6,3.8c3.2,4.4,1.3,7.6-0.5,8.9C176.4,151.7,173,149.9,170.3,146.3z
	 M176,129.4l-2.7,1.9l1.7,2.4l0,0.1c-2.3-1-5-0.7-7,0.8c-4.4,3.2-4.3,8.7-0.9,13.4c2.9,4,8.4,8.1,14.1,4c1.8-1.2,2.9-3.2,2.8-5.4
	l-0.1-0.1l0-0.1l0.5,0.7c1.5,2,4.4,5.8-0.5,9.3c-0.7,0.5-3.3,2.4-5.7,0.1l-2.8,2c3.8,4,8,1.8,10,0.3c7.7-5.6,3.4-11.6,1.7-14
	L176,129.4z"/>
<path d="M206.8,125.9l-2.2,2.7l-10.4-8.7c-2.1-1.8-4-2.4-6.2,0.2c-1.8,2.2-2.4,5.5,1.6,8.8l8.6,7.2l-2.2,2.7l-21.6-18.2l2.2-2.7
	l8,6.7l0-0.1c-0.7-2.3-0.2-4.9,1.3-6.8c2.1-2.4,5.6-4.7,10.1-0.9L206.8,125.9z"/>
<path d="M112.2,58.2"/>
<path d="M97.8,47.6c-1.9-3.1-43.4-11-43.4-11l-3.8,15.6C50.2,56.6,49.2,66.6,50,74c2.2,21.9,18.3,21.9,18.4,21.7
	c0,0-8.9,2.7-10.1,5.2c-4.2,9.3,2.2,14.3,2.2,14.3c-10.4-6.5-11.6-5.9-20.6-25.9c-2.3-5.1-7.1-30.8-2.9-41.5l2.9-14.9
	c0,0-32.9-7.1-32-11.1c2-9.3,10-26.1,11.3-20.8c2.5,10,25.8,20,25.8,20l5.4-12.9l15,8.2c0,0-3.3,0.4-6.6,8.3
	c-2.2,5,37.2,8.2,40.8,6.9C96.1,32.8,95.2,43.3,97.8,47.6z"/>
<path d="M86,92c-2.6-0.6-5.3-0.3-7.7,0.8c-2.6-3-1.7-9.9-1.7-12.4c-4.1,1.4-8.6,3.1-11.7,2.2c-4.6-1.2-7.5-11.4-6.5-15
	c1.8-6.9,7.3-6.9,20.3-7.4c0.9-2.6,0.2-5.1-3.7-6.2c-4.1-0.9-8.3-0.2-11.9,2l2-7.4c4.4-1.3,9-1.4,13.5-0.2c7.2,1.9,11.5,5.7,9.8,12
	l-3.5,13.1c-0.4,1.4-0.7,6.1-0.2,6.9c0.4,0.8,0.1,2.1,4.7,2.9L86,92z M77.5,64.7c-5.9,0.5-12.6,1-13.3,3.9c-0.5,1.7,2.8,5.5,4.5,5.9
	c1.7,0.4,5.2-1.9,7.1-2.8L77.5,64.7z"/>
<path d="M105.3,95.6c-3.3-1.8-6.9-2.8-10.6-3.1c-1.5,0,8.5-37.2,9-35.1c2.3,8.9,14.5,9.9,13.4,10.6C98.3,78.4,107.1,96.5,105.3,95.6
	z"/>
<path d="M179.6,71.7c-1.4,5.9,1.9,7.5,1.9,7.5c-0.5,0.3,5.9-1.3,8.1-0.8c12.5,3.3,38.1-1.9,33.8,15c0,0-3.3,12.7-8.7,20
	c2.3-3.1-15.4-8.2-15.4-8.2s5.7-1.6,6.6-8.6c1.1-8-15.8-9.6-15.8-9.6s-3.6-1.2-10.3,2.2c-5.6,2.9-8.7,15.5-12,20.7l-2.3,8.5
	c0,0-9.6,3.2-19.3-0.1l6.1-7.1c15.6-24.8,14.3-28.5,17.5-40.4s-6.1-27.6-6.1-27.6s13.8,6.1,25.4-0.2
	C187.7,43.7,180.5,67.8,179.6,71.7z"/>
<path d="M31.8,103.9"/>
<ellipse transform="matrix(0.259 -0.9659 0.9659 0.259 -41.3803 170.0435)" cx="90.1" cy="112" rx="2" ry="4.6"/>
<path d="M87.9,112.1"/>
<circle cx="125.8" cy="42.7" r="19.7"/>
<path d="M125.8,42.7"/>
<path d="M158.4,128c-4.8,3-23.5-5.6-23.5-5.6s1.8-4.1,2.3-5.3c0.7-1.7,1.3-2.9,1.3-2.9c1.7-3.7,0.2-0.7,5.2-5.2l3.1-3.5l2.2-3
	c1.7-2.7,2.8-5.7,3.3-8.8c1.6-8.1-0.4-11.9-0.4-11.9l-0.3-3.2c0,0,7.2-7.1,10.6-7.3c1.6-5.8-4.1-22.5-4.8-20.4
	c-3.4,10-8.3,19.7-12.5,20.9c-5.8,1.8-4,2.4-11.5,2.1c-4.1-0.1-4.1-0.1-8.8,1.3c-4.4,1.3-8.6,2.5-9.4,7.1
	c-2.2,12.7-0.4,12.1,1.3,15.4c2.2,4.4,15.6,13,15.6,13L131,114c-0.5,1.7-1.3,3.4-2.4,4.8c0,0,0.8,2.1-15.5-11.5
	c-6.4-7.2-20.8-8-20.8-8c-5,0.5-5.6-0.3-19.2,3c-2,0.5-6.4,2.1-7.2,3.8c-0.6,1.4,2.4,5.6,2.9,6.6c2,4,5,7.4,8.7,10
	c3.5,3.1,4.4,4.8,9.8,6.9c9.3,3.7,15.4,5.3,23.7,5.2c1.9,0,10.5-1.5,12.6-2.4c3.1-1.4,7.5-4.3,8.1-4c3,1.8,9.7,6.2,7.1,11.1
	C144.2,140.3,164.6,124.1,158.4,128z M124.6,124.2c1-0.9-15.8,2.6-18.8,2.1c-2.5-0.4-10-0.1-21.8-7.9c-3-2-4.1-4.3-6.7-7.6
	c-1-1.4,5.3-4.5,9.4-4.6c1,0,12.1,0.7,17.9,6.7c-1.4-1.4,6.7,5.2,13,8.4C118.8,121.8,125.5,123.4,124.6,124.2z M131.6,99.3
	c-4.4-1.2-8.3-6.4-7.9-10.9c0.5-6.3,7.1-8.1,12.5-6.6c4.4,1.2,6.7,7.4,5.5,11.8C140.5,97.8,136,100.4,131.6,99.3z"/>
<path d="M133.8,91.3"/>
</svg>
