<?xml version="1.0" encoding="utf-8"?>
<!-- Generator: Adobe Illustrator 24.0.2, SVG Export Plug-In . SVG Version: 6.00 Build 0)  -->
<svg version="1.1" id="Layer_1" xmlns="http://www.w3.org/2000/svg" xmlns:xlink="http://www.w3.org/1999/xlink" x="0px" y="0px"
	 viewBox="0 0 300 96" style="enable-background:new 0 0 300 96;" xml:space="preserve">
<style type="text/css">
	.st0{fill:#631F6B;}
	.st1{fill:#414549;}
</style>
<desc>Logo of University of the Highlands and Islands</desc>
<path class="st0" d="M49.4,15l4.3-5.4c0.3-0.4,0.9-0.7,1.4-0.7c0.6,0,1.1,0.3,1.4,0.7c0,0,31.2,41.2,31.7,41.9
	c0.5,0.8,0.1,1.2-0.4,1.5c-5.7,2.8-20.2-2.3-24.4-19.1S54.7,16.6,52,16.1c-1.5-0.3-2.5,0.1-2.9-0.2s0.2-0.9,0.2-0.9 M73.1,18.6
	c0.3-0.4,0.7-0.8,1.2-0.8s0.9,0.4,1.2,0.8l8.3,10.5c0,0,0.1,0.2,0.2,0.3c0.1,0.2,0.2,0.6-0.3,0.7c-1.1,0.1-6-0.9-8.2-3.5L71.4,21
	l1.7-2.3l0,0l0,0l0,0l0,0L73.1,18.6z M54.7,52.6c21.7,12.6,31.4,11.1,41.8,4V25.5l0,0v-3.1c0-1.2-1-2.2-2.2-2.2H82.9l-7.4-9.3
	c-0.7-0.7-1.9-0.7-2.6,0l-4.2,5.3L56.6,0.9c-0.8-0.8-2.1-0.8-2.9,0L20.3,42.4c1.2-0.2,13.7-1.7,34.5,10.3"/>
<path class="st0" d="M49.2,79.1c-0.1,0.1-0.2,0.1-0.5,0c-3.1-1.3-6.4-2.1-9.6-2.1c-6.8,0-12.2,3.1-12.3,7.3c0,0.8,0.1,1.2-0.1,1.4
	c-0.2,0.2-0.5,0.1-1-0.2c-1.5-1-2.1-2.8-2.1-4.4c0-4.2,4.4-7.2,11.1-7.2c5.4,0,11.9,2.7,14.3,4.9c0.1,0.1,0.2,0.2,0.1,0.3
	 M68.4,78.4c-18.9-3.1-28.5-15.8-43.7-8.8c-5,2.6-7.7,6.8-7.6,11.2c0,6.8,4.3,10.4,11.8,10.4h65.3c1.2,0,2.2-1,2.2-2.2V73.1
	C93.7,75.4,84.9,81,68.4,78.4"/>
<path class="st0" d="M96,63.6c-9.2,5.9-20.9,5.4-34.5-0.5c-9.7-4.3-35.5-21.4-53.6-9C2.7,57.6,0,64.5,0.6,69.5
	c0.7,4.9,4.3,9.7,9,11.5c0.9,0.3,1.2-0.1,0.9-0.8c-4.5-12.4,8.7-19,15.9-19.7c8.1-0.8,15.7,1.7,29.7,7.6
	c28.8,12.2,37.9,0.6,40.4-3.5C97,63.8,96.6,63.2,96,63.6"/>
<path class="st1" d="M108,28.5c0,2.8,1.1,4,3.5,4c2.5,0,3.6-1.2,3.6-4v-8.4h1.1v8.6c0,1.8-0.3,2.8-0.9,3.6c-0.8,0.9-2.3,1.5-4.1,1.5
	c-2.1,0-3.7-0.7-4.4-2c-0.4-0.7-0.6-1.6-0.6-3.1v-8.6h1.8V28.5L108,28.5C108,28.5,108,28.5,108,28.5z"/>
<path class="st1" d="M117.7,23.8h1.7v1.1c1.8-0.9,2.4-1.2,3.3-1.2c1.6,0,2.6,1.1,2.6,3v6.8h-1.7v-6.4c0-1.4-0.6-2-1.9-2
	c-0.7,0-1.3,0.1-2.4,0.6v7.8h-1.7L117.7,23.8L117.7,23.8L117.7,23.8L117.7,23.8z"/>
<path class="st1" d="M128.9,33.6h-1.7v-9.7h1.7V33.6z M128.9,22.6h-1.7v-1.3h1.7V22.6z"/>
<path class="st1" d="M134.7,31.6l3-7.7h1l-3.8,9.6h-1.1l-3.5-9.6h1.7L134.7,31.6L134.7,31.6L134.7,31.6z"/>
<path class="st1" d="M145,25.7c-0.4-0.7-1-1-1.8-1c-1.4,0-2.4,1-2.6,2.8h4.6c0-0.9-0.1-1.4-0.3-1.8 M143.2,33.8
	c-2.7,0-4.5-2-4.5-4.9c0-3,1.9-5.1,4.6-5.1c2.2,0,3.6,1.5,3.6,3.9c0,0.1,0,0.4,0,0.7h-6.5c0,0.9,0.1,1.3,0.2,2
	c0.5,1.5,1.6,2.3,3.1,2.3c1,0,1.8-0.3,3.2-1.2v1.1C145.6,33.4,144.4,33.8,143.2,33.8"/>
<path class="st1" d="M148.5,23.8h1.6v1.9c0.8-1.9,2.4-2,2.6-2c0.4,0,0.7,0.1,1.2,0.3v1.7c0,0-0.4-0.5-1.6-0.5
	c-0.7,0-1.3,0.5-2.2,1.5v6.8h-1.6V23.8L148.5,23.8z"/>
<path class="st1" d="M161,25.7c-1.4-1.1-2.7-1.1-2.7-1.1c-1,0-1.6,0.5-1.6,1.4c0,0.8,0.4,1.3,1.8,1.9c1.5,0.7,1.7,0.8,2.1,1.2
	c0.4,0.4,0.6,0.9,0.6,1.6c0,1.9-1.4,3-3.8,3c-0.9,0-1.7-0.1-2.6-0.4v-1.6c0,0,1.1,0.8,2,1c0.8,0.2,1.5,0,1.5,0h0.1
	c0.7-0.2,1.2-0.8,1.2-1.5c0-0.5-0.2-0.9-0.6-1.2c-0.3-0.2-0.5-0.4-1.5-0.8c-2-1-2.6-1.5-2.6-2.8c0-1.7,1.3-2.7,3.5-2.7
	c0.9,0,1.5,0.1,2.3,0.4v1.5l0,0l0,0L161,25.7z"/>
<path class="st1" d="M164.9,33.6h-1.7v-9.7h1.7V33.6z M164.9,22.6h-1.7v-1.3h1.7V22.6z"/>
<path class="st1" d="M166.5,24h1.3v-2.4h1.7V24h2.4v0.9h-2.4V30c0,1.7,0.4,2.5,1.6,2.5c0.4,0,0.9,0,1.4-0.2V33
	c-1.1,0.3-1.8,0.4-2.6,0.4c-1.5,0-2-1.1-2-2.4v-6.3h-1.3v-0.9l0,0l0,0L166.5,24z"/>
<path class="st1" d="M175.2,35.9c0.6-0.7,0.8-1.2,1.3-2.6l-3.6-9.3h1.7l2.8,7.2l2.9-7.2h1.2l-4.2,10.1c-1,2.3-1.8,3.3-3,3.3
	c-0.2,0-0.4,0-0.4,0v-1.1C174.6,36.3,174.9,36.2,175.2,35.9"/>
<path class="st1" d="M190.2,32.8c1.7,0,2.8-1.6,2.8-4.1s-1.1-4.1-2.8-4.1c-1.6,0-2.7,1.6-2.7,4.1s1.1,4.1,2.8,4.1 M190.3,33.7
	c-2.7,0-4.6-2.1-4.6-5c0-3,1.9-5,4.7-5c2.7,0,4.6,2.1,4.6,5S193.1,33.7,190.3,33.7"/>
<path class="st1" d="M198.4,21.4c-0.2,0.5-0.3,0.8-0.3,1.6v0.8h2.8v0.9h-2.8v8.7h-1.6v-8.7h-1.3v-0.9h1.3c0-1,0.1-1.5,0.4-2.3
	c0.6-1.6,2-2.3,3.5-2.3c0.5,0,0.9,0.1,1.4,0.4v1C201.8,20.6,199.4,19.5,198.4,21.4"/>
<path class="st1" d="M205.3,24h1.3v-2.4h1.7V24h2.4v0.9h-2.4V30c0,1.7,0.4,2.5,1.6,2.5c0.4,0,0.9,0,1.4-0.2V33
	c-1.1,0.3-1.8,0.4-2.6,0.4c-1.5,0-2-1.1-2-2.4v-6.3h-1.3v-0.9l0,0l0,0L205.3,24z"/>
<path class="st1" d="M214.1,24.9c1.7-0.9,2.5-1.2,3.3-1.2c1.6,0,2.6,1.1,2.6,3v6.8h-1.7v-6.4c0-1.4-0.6-2-1.9-2
	c-0.7,0-1.3,0.2-2.3,0.6v7.8h-1.7V19.3h1.7L214.1,24.9L214.1,24.9L214.1,24.9L214.1,24.9z"/>
<path class="st1" d="M227.5,25.7c-0.4-0.7-1-1-1.8-1c-1.4,0-2.4,1-2.6,2.8h4.6c0-0.9-0.1-1.4-0.3-1.8 M225.7,33.8
	c-2.7,0-4.5-2-4.5-4.9c0-3,1.9-5.1,4.6-5.1c2.2,0,3.6,1.5,3.6,3.9c0,0.1,0,0.4,0,0.7h-6.5c0,0.9,0.1,1.3,0.2,2
	c0.5,1.5,1.6,2.3,3.1,2.3c1,0,1.8-0.3,3.2-1.2v1.1C228.1,33.4,226.9,33.8,225.7,33.8"/>
<path class="st1" d="M115.2,45.1h-6.9v6.6h-1.8V38.3h1.8v5.9h6.9v-5.9h1.8v13.4h-1.8V45.1z"/>
<path class="st1" d="M120.8,51.7h-1.7V42h1.7V51.7z M120.8,40.7h-1.7v-1.3h1.7V40.7z"/>
<path class="st1" d="M126.1,47.6c1.2,0,2-1,2-2.4c0-1.5-0.8-2.5-2-2.5s-1.9,1-1.9,2.4c0,1.5,0.8,2.5,2,2.5 M123.7,52.7
	c0,1.2,1.1,2.1,2.7,2.1c1.7,0,3-0.9,3-2.2c0-0.9-0.4-1.2-2-1.5l-1.9-0.4C124.3,51.1,123.8,51.8,123.7,52.7 M130.7,43.4h-1.3
	c0.4,0.6,0.6,1.2,0.6,1.8c0,1.9-1.5,3.2-3.9,3.2c-0.1,0-0.3,0-0.3,0s-0.2,0.3-0.2,0.6c0,0.1,0,0.1,0,0.4l1.9,0.3
	c2.5,0.4,3.4,1,3.4,2.4c0,2-2.3,3.6-5.2,3.6c-2.2,0-3.6-1-3.6-2.6c0-1.3,0.8-2.2,2.1-2.5c-0.1-0.3-0.2-0.6-0.2-0.9
	c0-0.6,0.7-1.2,1-1.5c-1.6-0.4-2.5-1.5-2.5-3c0-1.9,1.5-3.3,3.8-3.3c0.8,0,1.5,0.2,2.3,0.5h1.9v0.9l0,0L130.7,43.4z"/>
<path class="st1" d="M133.6,43.1c1.7-0.9,2.5-1.2,3.3-1.2c1.6,0,2.6,1.1,2.6,3v6.8h-1.7v-6.4c0-1.4-0.6-2-1.9-2
	c-0.7,0-1.3,0.2-2.3,0.6v7.8h-1.7V37.5h1.7L133.6,43.1L133.6,43.1L133.6,43.1L133.6,43.1z"/>
<path class="st1" d="M141.4,37.5h1.7v14.2h-1.7V37.5z"/>
<path class="st1" d="M147.7,47.3c-1,0.5-1.4,1-1.4,1.8c0,1,0.6,1.6,1.6,1.6c0.7,0,1.3-0.2,2.5-0.9v-3.5c-1.7,0.5-2,0.6-2.7,0.9
	 M147.1,51.8c-1.5,0-2.5-1-2.5-2.5c0-1.2,0.6-2,2-2.5c1-0.4,1.4-0.5,3.8-1.1v-0.6c0-1.6-0.5-2.2-1.8-2.2c-0.5,0-1.4,0.1-1.9,0.6
	c-0.4,0.4-0.4,0.8-0.4,0.8H145c0-1.3,1.7-2.2,4-2.2c2.1,0,3,0.9,3,2.9v6.9h-1.7v-1.2c-1.5,1-2.3,1.3-3.3,1.3"/>
<path class="st1" d="M153.9,42h1.7v1.1c1.8-0.9,2.4-1.2,3.3-1.2c1.6,0,2.6,1.1,2.6,3v6.8h-1.7v-6.4c0-1.4-0.6-2-1.9-2
	c-0.7,0-1.3,0.1-2.4,0.6v7.8h-1.7L153.9,42L153.9,42L153.9,42L153.9,42L153.9,42L153.9,42z"/>
<path class="st1" d="M168.1,42.8c-2.1,0-3.4,1.6-3.4,4.1c0,2.3,1.2,3.7,3,3.7c0.7,0,1.3-0.2,2.2-0.7v-6.8
	C169,42.9,168.6,42.8,168.1,42.8 M171.5,51.7h-1.7v-1c-1.2,0.9-2,1.2-3.1,1.2c-2.3,0-3.9-1.9-3.9-4.7c0-3.1,2.1-5.3,5.2-5.3
	c0.5,0,1.1,0.1,1.8,0.2v-4.6h1.7V51.7L171.5,51.7L171.5,51.7C171.5,51.7,171.5,51.7,171.5,51.7z"/>
<path class="st1" d="M178.8,43.8c-1.4-1.1-2.7-1.1-2.7-1.1c-1,0-1.6,0.5-1.6,1.4c0,0.8,0.4,1.3,1.8,1.9c1.5,0.7,1.7,0.8,2.1,1.2
	c0.4,0.4,0.6,0.9,0.6,1.6c0,1.9-1.4,3-3.8,3c-0.9,0-1.7-0.1-2.6-0.4v-1.6c0,0,1.1,0.8,2,1c0.8,0.2,1.5,0,1.5,0h0.1
	c0.7-0.2,1.2-0.8,1.2-1.5c0-0.5-0.2-0.9-0.6-1.2c-0.3-0.2-0.5-0.4-1.5-0.8c-2-1-2.6-1.5-2.6-2.8c0-1.7,1.3-2.7,3.5-2.7
	c0.9,0,1.5,0.1,2.3,0.4v1.5l0,0l0,0l0,0l0,0L178.8,43.8z"/>
<path class="st1" d="M187.6,47.3c-1,0.5-1.4,1-1.4,1.8c0,1,0.6,1.6,1.6,1.6c0.7,0,1.3-0.2,2.5-0.9v-3.5c-1.7,0.5-2,0.6-2.7,0.9
	 M187,51.8c-1.5,0-2.5-1-2.5-2.5c0-1.2,0.6-2,2-2.5c1-0.4,1.4-0.5,3.8-1.1v-0.6c0-1.6-0.5-2.2-1.8-2.2c-0.5,0-1.4,0.1-1.9,0.6
	c-0.4,0.4-0.4,0.8-0.4,0.8h-1.3c0-1.3,1.7-2.2,4-2.2c2.1,0,3,0.9,3,2.9v6.9h-1.7v-1.2c-1.5,1-2.3,1.3-3.3,1.3"/>
<path class="st1" d="M193.8,42h1.7v1.1c1.8-0.9,2.4-1.2,3.3-1.2c1.6,0,2.6,1.1,2.6,3v6.8h-1.7v-6.4c0-1.4-0.6-2-1.9-2
	c-0.7,0-1.3,0.1-2.4,0.6v7.8h-1.7L193.8,42L193.8,42L193.8,42L193.8,42z"/>
<path class="st1" d="M208,42.8c-2.1,0-3.4,1.6-3.4,4.1c0,2.3,1.2,3.7,3,3.7c0.7,0,1.3-0.2,2.2-0.7v-6.8
	C208.9,42.9,208.5,42.8,208,42.8 M211.4,51.7h-1.7v-1c-1.2,0.9-2,1.2-3.1,1.2c-2.3,0-3.9-1.9-3.9-4.7c0-3.1,2.1-5.3,5.2-5.3
	c0.5,0,1.1,0.1,1.8,0.2v-4.6h1.7V51.7L211.4,51.7C211.4,51.7,211.4,51.7,211.4,51.7z"/>
<path class="st1" d="M218.5,38.3h1.7v13.4h-1.7C218.5,51.7,218.5,38.3,218.5,38.3z"/>
<path class="st1" d="M227.7,43.8c-1.4-1.1-2.7-1.1-2.7-1.1c-1,0-1.6,0.5-1.6,1.4c0,0.8,0.4,1.3,1.8,1.9c1.5,0.7,1.7,0.8,2.1,1.2
	c0.4,0.4,0.6,0.9,0.6,1.6c0,1.9-1.4,3-3.8,3c-0.9,0-1.7-0.1-2.6-0.4v-1.6c0,0,1.1,0.8,2,1c0.8,0.2,1.5,0,1.5,0h0.1
	c0.7-0.2,1.2-0.8,1.2-1.5c0-0.5-0.2-0.9-0.6-1.2c-0.3-0.2-0.5-0.4-1.5-0.8c-2-1-2.6-1.5-2.6-2.8c0-1.7,1.3-2.7,3.5-2.7
	c0.9,0,1.5,0.1,2.3,0.4v1.5l0,0l0,0L227.7,43.8z"/>
<path class="st1" d="M229.8,37.5h1.7v14.2h-1.7V37.5z"/>
<path class="st1" d="M236.3,47.3c-1,0.5-1.4,1-1.4,1.8c0,1,0.6,1.6,1.6,1.6c0.7,0,1.3-0.2,2.5-0.9v-3.5c-1.7,0.5-2,0.6-2.7,0.9
	 M235.7,51.8c-1.5,0-2.5-1-2.5-2.5c0-1.2,0.6-2,2-2.5c1-0.4,1.4-0.5,3.8-1.1v-0.6c0-1.6-0.5-2.2-1.8-2.2c-0.5,0-1.4,0.1-1.9,0.6
	c-0.4,0.4-0.4,0.8-0.4,0.8h-1.3c0-1.3,1.7-2.2,4-2.2c2.1,0,3,0.9,3,2.9v6.9h-1.7v-1.2c-1.5,1-2.3,1.3-3.3,1.3"/>
<path class="st1" d="M242.7,42h1.7v1.1c1.8-0.9,2.4-1.2,3.3-1.2c1.6,0,2.6,1.1,2.6,3v6.8h-1.7v-6.4c0-1.4-0.6-2-1.9-2
	c-0.7,0-1.3,0.1-2.4,0.6v7.8h-1.7L242.7,42L242.7,42L242.7,42z"/>
<path class="st1" d="M256.9,42.8c-2.1,0-3.4,1.6-3.4,4.1c0,2.3,1.2,3.7,3,3.7c0.7,0,1.3-0.2,2.2-0.7v-6.8
	C257.8,42.9,257.4,42.8,256.9,42.8 M260.3,51.7h-1.7v-1c-1.2,0.9-2,1.2-3.1,1.2c-2.3,0-3.9-1.9-3.9-4.7c0-3.1,2.1-5.3,5.2-5.3
	c0.5,0,1.1,0.1,1.8,0.2v-4.6h1.7V51.7L260.3,51.7L260.3,51.7C260.3,51.7,260.3,51.7,260.3,51.7z"/>
<path class="st1" d="M268,43.8c-1.4-1.1-2.7-1.1-2.7-1.1c-1,0-1.6,0.5-1.6,1.4c0,0.8,0.4,1.3,1.8,1.9c1.5,0.7,1.7,0.8,2.1,1.2
	s0.6,0.9,0.6,1.6c0,1.9-1.4,3-3.8,3c-0.9,0-1.7-0.1-2.6-0.4v-1.6c0,0,1.1,0.8,2,1c0.8,0.2,1.5,0,1.5,0h0.1c0.7-0.2,1.2-0.8,1.2-1.5
	c0-0.5-0.2-0.9-0.6-1.2c-0.3-0.2-0.5-0.4-1.5-0.8c-2-1-2.6-1.5-2.6-2.8c0-1.7,1.3-2.7,3.5-2.7c0.9,0,1.5,0.1,2.3,0.4v1.5l0,0l0,0
	l0,0L268,43.8z"/>
<path class="st0" d="M112.4,72.3c2.6,0,4.2-2.3,4.2-5.9c0-3.7-1.6-6-4.3-6c-2.6,0-4.2,2.3-4.2,5.9C108.1,69.9,109.8,72.3,112.4,72.3
	 M112.4,73.4c-3.7,0-6.2-2.9-6.2-7c0-4.2,2.5-7,6.3-7c3.6,0,6.1,3,6.1,7C118.6,70.5,116.1,73.4,112.4,73.4"/>
<path class="st0" d="M121.7,73h-1.6v-9.7h1.6V73z M121.7,62h-1.6v-1.3h1.6V62z"/>
<path class="st0" d="M124,58.9h1.6v14.2H124C124,73.1,124,58.9,124,58.9z"/>
<path class="st0" d="M127.1,63.5h1.2v-2.4h1.6v2.4h2.4v0.9h-2.4v5.1c0,1.7,0.4,2.5,1.6,2.5c0.4,0,0.9,0,1.4-0.2v0.7
	c-1,0.3-1.7,0.4-2.6,0.4c-1.5,0-2-1.1-2-2.4v-6.3h-1.2v-0.9l0,0L127.1,63.5z"/>
<path class="st0" d="M135.7,64.4c1.6-0.9,2.4-1.2,3.2-1.2c1.6,0,2.5,1.1,2.5,3V73h-1.6v-6.4c0-1.4-0.6-2-1.9-2
	c-0.7,0-1.3,0.2-2.3,0.6V73H134V58.8h1.6v5.6l0,0H135.7z"/>
<path class="st0" d="M145.1,73h-1.6v-9.7h1.6V73z M145.1,62h-1.6v-1.3h1.6V62z"/>
<path class="st0" d="M150.3,68.9c1.2,0,1.9-1,1.9-2.4c0-1.5-0.8-2.5-2-2.5c-1.1,0-1.9,1-1.9,2.4c0,1.5,0.8,2.5,1.9,2.5 M147.7,74
	c0,1.2,1.1,2.1,2.7,2.1c1.7,0,2.9-0.9,2.9-2.2c0-0.9-0.4-1.2-2-1.5l-1.9-0.4C148.2,72.4,147.7,73.1,147.7,74 M154.5,64.7h-1.3
	c0.4,0.6,0.5,1.2,0.5,1.8c0,1.9-1.5,3.2-3.8,3.2c-0.1,0-0.3,0-0.3,0s-0.2,0.3-0.2,0.6c0,0.1,0,0.1,0,0.4l1.9,0.3
	c2.4,0.4,3.3,1,3.3,2.4c0,2-2.3,3.6-5.1,3.6c-2.2,0-3.5-1-3.5-2.6c0-1.3,0.8-2.2,2.1-2.5c-0.1-0.3-0.2-0.6-0.2-0.9
	c0-0.6,0.6-1.2,0.9-1.5c-1.5-0.4-2.4-1.5-2.4-3c0-1.9,1.5-3.3,3.7-3.3c0.8,0,1.5,0.2,2.3,0.5h1.9v0.9l0,0l0,0L154.5,64.7z"/>
<path class="st0" d="M158.1,64.4c1.6-0.9,2.4-1.2,3.2-1.2c1.6,0,2.5,1.1,2.5,3V73h-1.6v-6.4c0-1.4-0.6-2-1.9-2
	c-0.7,0-1.3,0.2-2.3,0.6V73h-1.6V58.8h1.6v5.6l0,0l0,0l0,0H158.1z"/>
<path class="st0" d="M169.6,63.3h1.6v1.1c1.7-0.9,2.4-1.2,3.3-1.2c1.6,0,2.5,1.1,2.5,3V73h-1.6v-6.4c0-1.4-0.6-2-1.8-2
	c-0.7,0-1.3,0.1-2.3,0.6V73h-1.6L169.6,63.3L169.6,63.3L169.6,63.3z"/>
<path class="st0" d="M181.8,68.6c-0.9,0.5-1.4,1-1.4,1.8c0,1,0.6,1.6,1.5,1.6c0.7,0,1.3-0.2,2.5-0.9v-3.5
	C182.7,68.1,182.4,68.2,181.8,68.6 M181.2,73.1c-1.5,0-2.5-1-2.5-2.5c0-1.2,0.6-2,1.9-2.5c1-0.4,1.4-0.5,3.8-1.1v-0.6
	c0-1.6-0.5-2.2-1.8-2.2c-0.5,0-1.4,0.1-1.8,0.6c-0.4,0.4-0.4,0.8-0.4,0.8h-1.3c0-1.3,1.6-2.2,3.9-2.2c2.1,0,3,0.9,3,2.9v6.9h-1.6V72
	c-1.4,1-2.3,1.3-3.2,1.3"/>
<path class="st0" d="M198.8,60.4c-3,0-4.8,2.2-4.8,5.8c0,3.7,1.9,6,5.1,6c0.6,0,1.1-0.1,2-0.3v-5.3h1.8v6c-1.8,0.5-2.9,0.7-4.1,0.7
	c-2,0-3.6-0.6-4.8-2c-1.2-1.3-1.8-3.1-1.8-5.1c0-4.1,2.6-6.8,6.9-6.8c1.2,0,2.2,0.2,3.8,0.6v1.9l-1.7-0.9
	C200.4,60.6,199.7,60.5,198.8,60.4"/>
<path class="st0" d="M208.8,61.8h-1l-1.7-2.6h1.9l0.7,2.6H208.8z M207.5,68.6c-0.9,0.5-1.4,1-1.4,1.8c0,1,0.6,1.6,1.5,1.6
	c0.7,0,1.3-0.2,2.5-0.9v-3.5C208.4,68.1,208.1,68.2,207.5,68.6 M206.9,73.1c-1.5,0-2.5-1-2.5-2.5c0-1.2,0.6-2,2-2.5
	c1-0.4,1.4-0.5,3.8-1.1v-0.6c0-1.6-0.5-2.2-1.8-2.2c-0.5,0-1.4,0.1-1.8,0.6c-0.4,0.4-0.4,0.8-0.4,0.8h-1.3c0-1.3,1.6-2.2,3.9-2.2
	c2.1,0,2.9,0.8,2.9,2.8v6.9h-1.6V72c-1.4,0.9-2.3,1.3-3.2,1.3"/>
<path class="st0" d="M215.5,73h-1.6v-9.7h1.6V73z M215.5,62h-1.6v-1.3h1.6V62z"/>
<path class="st0" d="M222.2,64.1c-2,0-3.4,1.6-3.4,4.1c0,2.3,1.1,3.7,2.9,3.7c0.7,0,1.3-0.2,2.2-0.7v-6.8
	C223,64.2,222.6,64.1,222.2,64.1 M225.6,73H224v-1c-1.1,0.9-2,1.2-3,1.2c-2.2,0-3.8-1.9-3.8-4.7c0-3.1,2-5.3,5.1-5.3
	c0.5,0,1,0.1,1.7,0.2v-4.6h1.6V73L225.6,73L225.6,73z"/>
<path class="st0" d="M229.1,64.4c1.6-0.9,2.4-1.2,3.2-1.2c1.6,0,2.5,1.1,2.5,3V73h-1.6v-6.4c0-1.4-0.6-2-1.9-2
	c-0.7,0-1.3,0.2-2.3,0.6V73h-1.6V58.8h1.6v5.6l0,0l0,0l0,0l0,0H229.1z"/>
<path class="st0" d="M242,65.1c-0.4-0.7-0.9-1-1.7-1c-1.4,0-2.3,1-2.5,2.8h4.5C242.3,66,242.2,65.5,242,65.1 M240.4,73.2
	c-2.6,0-4.4-2-4.4-4.9c0-3,1.9-5.1,4.5-5.1c2.2,0,3.5,1.5,3.5,3.9c0,0.1,0,0.4,0,0.7h-6.4c0,0.9,0.1,1.3,0.2,2
	c0.4,1.5,1.6,2.3,3,2.3c1,0,1.7-0.3,3.1-1.2V72C242.6,72.8,241.5,73.2,240.4,73.2"/>
<path class="st0" d="M248.4,68.6c-0.9,0.5-1.4,1-1.4,1.8c0,1,0.6,1.6,1.5,1.6c0.7,0,1.3-0.2,2.5-0.9v-3.5
	C249.3,68.1,249,68.2,248.4,68.6 M247.8,73.1c-1.5,0-2.5-1-2.5-2.5c0-1.2,0.6-2,1.9-2.5c1-0.4,1.4-0.5,3.8-1.1v-0.6
	c0-1.6-0.5-2.2-1.8-2.2c-0.5,0-1.4,0.1-1.8,0.6c-0.4,0.4-0.4,0.8-0.4,0.8h-1.3c0-1.3,1.6-2.2,3.9-2.2c2.1,0,3,0.9,3,2.9v6.9H251V72
	c-1.4,1-2.3,1.3-3.2,1.3"/>
<path class="st0" d="M254.8,58.9h1.6v14.2h-1.6L254.8,58.9L254.8,58.9z"/>
<path class="st0" d="M257.7,63.5h1.2v-2.4h1.6v2.4h2.4v0.9h-2.4v5.1c0,1.7,0.4,2.5,1.6,2.5c0.4,0,0.9,0,1.4-0.2v0.7
	c-1,0.3-1.7,0.4-2.6,0.4c-1.5,0-2-1.1-2-2.4v-6.3h-1.2v-0.9V63.5z"/>
<path class="st0" d="M267.6,68.6c-0.9,0.5-1.4,1-1.4,1.8c0,1,0.6,1.6,1.5,1.6c0.7,0,1.3-0.2,2.5-0.9v-3.5
	C268.5,68.1,268.2,68.2,267.6,68.6 M267,73.1c-1.5,0-2.5-1-2.5-2.5c0-1.2,0.6-2,1.9-2.5c1-0.4,1.4-0.5,3.8-1.1v-0.6
	c0-1.6-0.5-2.2-1.8-2.2c-0.5,0-1.4,0.1-1.8,0.6c-0.4,0.4-0.4,0.8-0.4,0.8h-1.3c0-1.3,1.6-2.2,3.9-2.2c2.1,0,3,0.9,3,2.9v6.9h-1.6V72
	c-1.4,1-2.3,1.3-3.2,1.3"/>
<path class="st0" d="M277.8,73.2c-2.6,0-4.4-2-4.4-4.9c0-3,1.9-5,4.7-5c1,0,2.2,0.3,2.7,0.7v1.5c0,0-0.8-1.3-2.7-1.3
	c-1.7,0-2.8,1.6-2.8,3.9c0,2.5,1.3,3.9,3.3,3.9c0.9,0,1.5-0.2,2.5-0.8v1c-1.2,0.7-2.1,1-3.2,1"/>
<path class="st0" d="M284.3,64.4c1.6-0.9,2.4-1.2,3.2-1.2c1.6,0,2.5,1.1,2.5,3V73h-1.6v-6.4c0-1.4-0.6-2-1.9-2
	c-0.7,0-1.3,0.2-2.3,0.6V73h-1.6V58.8h1.6L284.3,64.4L284.3,64.4L284.3,64.4L284.3,64.4L284.3,64.4z"/>
<path class="st0" d="M296.6,64.1c-2,0-3.4,1.6-3.4,4.1c0,2.3,1.1,3.7,2.9,3.7c0.7,0,1.3-0.2,2.2-0.7v-6.8
	C297.4,64.2,297,64.1,296.6,64.1 M300,73h-1.6v-1c-1.1,0.9-2,1.2-3,1.2c-2.2,0-3.8-1.9-3.8-4.7c0-3.1,2-5.3,5.1-5.3
	c0.5,0,1,0.1,1.7,0.2v-4.6h1.6L300,73L300,73L300,73L300,73z"/>
<path class="st0" d="M109.1,86.7c-1,0.5-1.4,1-1.4,1.8c0,1,0.6,1.6,1.6,1.6c0.7,0,1.3-0.2,2.5-0.9v-3.5
	C110.1,86.2,109.8,86.3,109.1,86.7 M108.5,91.2c-1.5,0-2.5-1-2.5-2.5c0-1.2,0.6-2,2-2.5c1-0.4,1.4-0.5,3.8-1.1v-0.6
	c0-1.6-0.5-2.2-1.8-2.2c-0.5,0-1.4,0.1-1.9,0.6c-0.4,0.4-0.4,0.8-0.4,0.8h-1.3c0-1.3,1.7-2.2,4-2.2c2.1,0,3,0.9,3,2.9v6.9h-1.7v-1.2
	c-1.5,1-2.3,1.3-3.3,1.3"/>
<path class="st0" d="M118.6,87c1.2,0,2-1,2-2.4c0-1.5-0.8-2.5-2-2.5s-1.9,1-1.9,2.4C116.7,86,117.5,87,118.6,87 M116.2,92.1
	c0,1.2,1.1,2.1,2.7,2.1c1.7,0,3-0.9,3-2.2c0-0.9-0.4-1.2-2-1.5l-1.9-0.4C116.8,90.5,116.3,91.2,116.2,92.1 M123.2,82.8h-1.3
	c0.4,0.6,0.6,1.2,0.6,1.8c0,1.9-1.5,3.2-3.9,3.2c-0.1,0-0.3,0-0.3,0s-0.2,0.3-0.2,0.6c0,0.1,0,0.1,0,0.4l1.9,0.3
	c2.5,0.4,3.4,1,3.4,2.4c0,2-2.3,3.6-5.2,3.6c-2.2,0-3.6-1-3.6-2.6c0-1.3,0.8-2.2,2.1-2.5c-0.1-0.3-0.2-0.6-0.2-0.9
	c0-0.6,0.7-1.2,1-1.5c-1.6-0.4-2.5-1.5-2.5-3c0-1.9,1.5-3.3,3.8-3.3c0.8,0,1.5,0.2,2.3,0.5h1.9v0.9l0,0l0,0L123.2,82.8z"/>
<path class="st0" d="M125.9,88c0,1.4,0.6,2.1,1.9,2.1c0.7,0,1.4-0.2,2.3-0.6v-8.1h1.7v9.8h-1.7v-1.1c-1.5,1-2.3,1.3-3.3,1.3
	c-1.7,0-2.6-1.1-2.6-3v-7h1.6L125.9,88L125.9,88L125.9,88L125.9,88L125.9,88z"/>
<path class="st0" d="M139.7,83.3c-1.4-1.1-2.7-1.1-2.7-1.1c-1,0-1.6,0.5-1.6,1.4c0,0.8,0.4,1.3,1.8,1.9c1.5,0.7,1.7,0.8,2.1,1.2
	c0.4,0.4,0.6,0.9,0.6,1.6c0,1.9-1.4,3-3.8,3c-0.9,0-1.7-0.1-2.6-0.4v-1.6c0,0,1.1,0.8,2,1c0.8,0.2,1.5,0,1.5,0h0.1
	c0.7-0.2,1.2-0.8,1.2-1.5c0-0.5-0.2-0.9-0.6-1.2c-0.3-0.2-0.5-0.4-1.5-0.8c-2-1-2.6-1.5-2.6-2.8c0-1.7,1.3-2.7,3.5-2.7
	c0.9,0,1.5,0.1,2.3,0.4v1.5l0,0l0,0L139.7,83.3z"/>
<path class="st0" d="M145.6,81.5h1.7v1.1c1.8-0.9,2.4-1.2,3.3-1.2c1.6,0,2.6,1.1,2.6,3v6.8h-1.7v-6.4c0-1.4-0.6-2-1.9-2
	c-0.7,0-1.3,0.1-2.4,0.6v7.8h-1.7L145.6,81.5L145.6,81.5L145.6,81.5L145.6,81.5z"/>
<path class="st0" d="M157.6,86.7c-1,0.5-1.4,1-1.4,1.8c0,1,0.6,1.6,1.6,1.6c0.7,0,1.3-0.2,2.5-0.9v-3.5
	C158.6,86.2,158.3,86.3,157.6,86.7 M157,91.2c-1.5,0-2.5-1-2.5-2.5c0-1.2,0.6-2,2-2.5c1-0.4,1.4-0.5,3.8-1.1v-0.6
	c0-1.6-0.5-2.2-1.8-2.2c-0.5,0-1.4,0.1-1.9,0.6c-0.4,0.4-0.4,0.8-0.4,0.8h-1.3c0-1.3,1.7-2.2,4-2.2c2.1,0,3,0.9,3,2.9v6.9h-1.7v-1.2
	c-1.5,1-2.3,1.3-3.3,1.3"/>
<path class="st0" d="M163.8,81.5h1.7v1.1c1.8-0.9,2.4-1.2,3.3-1.2c1.6,0,2.6,1.1,2.6,3v6.8h-1.7v-6.4c0-1.4-0.6-2-1.9-2
	c-0.7,0-1.3,0.1-2.4,0.6v7.8h-1.7L163.8,81.5L163.8,81.5L163.8,81.5L163.8,81.5L163.8,81.5z"/>
<path class="st0" d="M179.4,83.7h4.7v0.9h-4.7v5.6h7v0.9h-8.8V77.7h8.1v0.9h-6.3V83.7L179.4,83.7z"/>
<path class="st0" d="M189.6,91.2h-1.7v-9.7h1.7V91.2z M189.6,80.2h-1.7v-1.3h1.7V80.2z"/>
<path class="st0" d="M191.7,77h1.7v14.2h-1.7V77z"/>
<path class="st0" d="M201.2,83.3c-0.4-0.7-1-1-1.8-1c-1.4,0-2.4,1-2.6,2.8h4.6c0-0.9-0.1-1.4-0.3-1.8 M199.4,91.4
	c-2.7,0-4.5-2-4.5-4.9c0-3,1.9-5.1,4.6-5.1c2.2,0,3.6,1.5,3.6,3.9c0,0.1,0,0.4,0,0.7h-6.5c0,0.9,0.1,1.3,0.2,2
	c0.5,1.5,1.6,2.3,3.1,2.3c1,0,1.8-0.3,3.2-1.2v1.1C201.8,91,200.6,91.4,199.4,91.4"/>
<path class="st0" d="M207.5,86.7c-1,0.5-1.4,1-1.4,1.8c0,1,0.6,1.6,1.6,1.6c0.7,0,1.3-0.2,2.5-0.9v-3.5
	C208.5,86.2,208.2,86.3,207.5,86.7 M206.9,91.2c-1.5,0-2.5-1-2.5-2.5c0-1.2,0.6-2,2-2.5c1-0.4,1.4-0.5,3.8-1.1v-0.6
	c0-1.6-0.5-2.2-1.8-2.2c-0.5,0-1.4,0.1-1.9,0.6c-0.4,0.4-0.4,0.8-0.4,0.8h-1.3c0-1.3,1.7-2.2,4-2.2c2.1,0,3,0.9,3,2.9v6.9h-1.7v-1.2
	c-1.5,1-2.3,1.3-3.3,1.3"/>
<path class="st0" d="M213.8,81.5h1.7v1.1c1.8-0.9,2.4-1.2,3.3-1.2c1.6,0,2.6,1.1,2.6,3v6.8h-1.7v-6.4c0-1.4-0.6-2-1.9-2
	c-0.7,0-1.3,0.1-2.4,0.6v7.8h-1.7L213.8,81.5L213.8,81.5L213.8,81.5L213.8,81.5z"/>
</svg>
