<?xml version="1.0" encoding="utf-8"?>
<!-- Generator: Adobe Illustrator 24.0.2, SVG Export Plug-In . SVG Version: 6.00 Build 0)  -->
<svg version="1.1" id="Layer_1" xmlns="http://www.w3.org/2000/svg" xmlns:xlink="http://www.w3.org/1999/xlink" x="0px" y="0px"
	 viewBox="0 0 1451.3 1451.3" style="enable-background:new 0 0 1451.3 1451.3;" xml:space="preserve">
<style type="text/css">
	.st0{fill:#0045F3;}
</style>
<g>
	<path class="st0" d="M392.3,582.1l-44.6,288.6c-3.5,21.9-5.2,37.6-5.2,47.2c0,18.4,7.9,25.4,31.5,25.4h28l-7.9,48.1
		c-21.9,12.2-63,24.5-104.9,24.5c-47.2,0-71.7-24.5-71.7-66.5c0-12.2,1.7-33.2,5.2-48.1l37.6-241.3l-53.3-11.4l5.2-43.7
		C250.6,592.6,327.6,582.1,392.3,582.1z M301.4,409c14.9-4.4,37.6-7,62.1-7c21.9,0,46.3,2.6,58.6,7c0,29.7-13.1,82.2-26.2,108.4
		c-15.7,5.2-32.4,7.9-56,7.9c-21,0-39.3-2.6-52.5-7.9C287.4,475.4,291.7,438.7,301.4,409z"/>
	<path class="st0" d="M777.9,949.4l-16.6-97.1H579.4l-47.2,96.2c21.9,1.7,44.6,7,57.7,12.2l-7,46.3H401l7-46.3
		c8.7-3.5,21.9-7.9,38.5-10.5l262.3-502.8c14.9-4.4,37.6-7,56.8-7c16.6,0,32.4,2.6,47.2,7l97.1,501.9c15.7,2.6,29.7,7.9,39.3,11.4
		l-7,46.3H708.8l6.1-46.3C728.1,955.5,755.2,951.1,777.9,949.4z M749.9,786.7l-35.9-209l-102.3,209H749.9z"/>
	<path class="st0" d="M1193.3,582.1l-44.6,288.6c-3.5,21.9-5.2,37.6-5.2,47.2c0,18.4,7.9,25.4,31.5,25.4h28l-7.9,48.1
		c-21.9,12.2-63,24.5-104.9,24.5c-47.2,0-71.7-24.5-71.7-66.5c0-12.2,1.7-33.2,5.2-48.1l37.6-241.3l-53.3-11.4l5.2-43.7
		C1051.6,592.6,1128.5,582.1,1193.3,582.1z M1102.3,409c14.9-4.4,37.6-7,62.1-7c21.9,0,46.3,2.6,58.6,7c0,29.7-13.1,82.2-26.2,108.4
		c-15.7,5.2-32.4,7.9-56,7.9c-21,0-39.3-2.6-52.5-7.9C1088.3,475.4,1092.7,438.7,1102.3,409z"/>
</g>
</svg>
