<?xml version="1.0" encoding="utf-8"?>
<svg version="1.1" id="Layer_1" xmlns="http://www.w3.org/2000/svg" xmlns:xlink="http://www.w3.org/1999/xlink" x="0px" y="0px"
	 viewBox="0 0 95 95" style="enable-background:new 0 0 95 95;" xml:space="preserve">
<g>
	<path d="M5270.6,2397.6v-2c0-2.8-5-4-9.7-4s-9.7,1.3-9.7,4v2c0,1.8,0.7,3.6,2,4.9l5,4.9c0.3,0.3,0.4,0.6,0.4,1v6.4
		c0,0.4,0.2,0.7,0.6,0.8l2.9,0.9c0.5,0.1,1-0.2,1-0.8v-7.2c0-0.4,0.2-0.7,0.4-1l5.1-5C5269.9,2401.2,5270.6,2399.4,5270.6,2397.6
		L5270.6,2397.6z M5260.9,2397.5c-4.8,0-7.4-1.3-7.5-1.8c0.1-0.5,2.7-1.8,7.5-1.8s7.3,1.3,7.5,1.8
		C5268.2,2396.2,5265.7,2397.5,5260.9,2397.5z"/>
	<path d="M5265.9,2407.8c-0.6,0-1,0.4-1,1s0.4,1,1,1h4.3c0.6,0,1-0.4,1-1s-0.4-1-1-1H5265.9z M5270.2,2411.2h-4.3c-0.6,0-1,0.4-1,1
		s0.4,1,1,1h4.3c0.6,0,1-0.4,1-1S5270.8,2411.2,5270.2,2411.2z M5270.2,2414.5h-4.3c-0.6,0-1,0.4-1,1s0.4,1,1,1h4.3c0.6,0,1-0.4,1-1
		C5271.2,2415,5270.8,2414.5,5270.2,2414.5z M47.5,0C21.3,0,0,21.3,0,47.5S21.3,95,47.5,95S95,73.7,95,47.5S73.7,0,47.5,0z
		 M57.7,24.7c-3.3,0.6-6.7,0.9-10.2,0.9s-6.9-0.3-10.2-0.9c2.6-11.8,6.9-18.8,10.2-18.8S55.1,12.9,57.7,24.7z M57.6,7.2
		c7.2,1.8,13.7,5.5,18.9,10.6c-3.8,2.4-8.2,4.3-13,5.6C62.1,17,60.1,11.4,57.6,7.2z M35.1,44.5c0.1-5.1,0.5-9.8,1.2-14
		c3.7,0.6,7.4,1,11.3,1c3.8,0,7.6-0.4,11.3-1c0.6,4.2,1,8.9,1.2,14H35.1z M59.9,50.5c-0.1,5.1-0.5,9.8-1.1,14c-3.7-0.6-7.4-1-11.3-1
		c-3.8,0-7.6,0.4-11.3,1c-0.6-4.2-1-8.9-1.1-14C35.1,50.5,59.9,50.5,59.9,50.5z M31.5,23.4c-4.8-1.3-9.2-3.2-13-5.6
		c5.2-5.1,11.7-8.7,18.9-10.6C34.9,11.4,32.9,17,31.5,23.4z M30.5,29.3c-0.8,4.9-1.2,10.1-1.3,15.3h-23c0.6-8.3,3.7-16,8.5-22.3
		C19.1,25.3,24.6,27.7,30.5,29.3z M29.1,50.5c0.1,5.2,0.6,10.3,1.3,15.3c-5.9,1.6-11.3,3.9-15.9,7c-4.8-6.3-7.8-14-8.4-22.3
		C6.1,50.5,29.1,50.5,29.1,50.5z M31.5,71.6c1.4,6.4,3.4,12.1,5.9,16.2c-7.2-1.8-13.7-5.5-18.9-10.6C22.3,74.8,26.7,72.9,31.5,71.6z
		 M37.3,70.3c3.3-0.6,6.7-0.9,10.2-0.9s6.9,0.3,10.2,0.9c-2.6,11.8-6.9,18.8-10.2,18.8S39.9,82.1,37.3,70.3z M63.5,71.6
		c4.8,1.3,9.2,3.2,13,5.7c-5.2,5.1-11.7,8.7-18.9,10.6C60.1,83.6,62.1,78,63.5,71.6z M64.5,65.7c0.8-4.9,1.2-10.1,1.3-15.3h23
		c-0.6,8.3-3.7,16-8.5,22.3C75.8,69.7,70.4,67.3,64.5,65.7z M65.9,44.5c-0.1-5.2-0.6-10.3-1.3-15.3c5.9-1.6,11.3-3.9,15.9-7
		c4.8,6.3,7.9,13.9,8.5,22.3H65.9z"/>
</g>
</svg>
